<svg xmlns="http://www.w3.org/2000/svg" viewBox="0 0 1024 1024"><defs><linearGradient id="g" x1="0" y1="0" x2="1" y2="1"><stop stop-color="#17231d"/><stop offset="1" stop-color="#315f4f"/></linearGradient></defs><rect x="48" y="48" width="928" height="928" rx="210" fill="url(#g)"/><circle cx="130" cy="120" r="250" fill="#d6a85c" opacity=".16"/><circle cx="900" cy="900" r="270" fill="#d6a85c" opacity=".14"/><rect x="210" y="225" width="604" height="575" rx="80" fill="#fffdf7" stroke="#d6a85c" stroke-width="12"/><g fill="#18211c"><rect x="300" y="390" width="10" height="235" rx="3"/><rect x="325" y="390" width="18" height="235" rx="3"/><rect x="358" y="390" width="7" height="235" rx="3"/><rect x="380" y="390" width="22" height="235" rx="3"/><rect x="417" y="390" width="10" height="235" rx="3"/><rect x="442" y="390" width="14" height="235" rx="3"/><rect x="471" y="390" width="26" height="235" rx="3"/><rect x="512" y="390" width="8" height="235" rx="3"/><rect x="535" y="390" width="18" height="235" rx="3"/><rect x="568" y="390" width="12" height="235" rx="3"/><rect x="595" y="390" width="30" height="235" rx="3"/><rect x="640" y="390" width="7" height="235" rx="3"/><rect x="662" y="390" width="16" height="235" rx="3"/><rect x="693" y="390" width="22" height="235" rx="3"/></g><text x="512" y="315" text-anchor="middle" font-size="145" font-weight="900" font-family="Arial" fill="#315f4f">د</text><text x="512" y="740" text-anchor="middle" font-size="72" font-weight="900" font-family="Arial" fill="#315f4f">LABELS</text></svg>